<svg xmlns="http://www.w3.org/2000/svg" viewBox="0 0 137.25 88.63"><title>Asset 1</title><g id="Layer_2" data-name="Layer 2"><g id="Layer_1-2" data-name="Layer 1"><path d="M66.55.41h31.2v1.9H92v31h19.9v-31H106V.41h31.3v1.9h-5.9v66.2h5.9v1.9H106v-1.9h5.9V35.91H92v32.6h5.8v1.9H66.55v-1.9h5.9V2.31h-5.9Z"/><path d="M18.75,0H59.38V2.38H52.5v54q0,16.86-7.62,24.56T22,88.62q-10.12,0-16.06-3.87A12.27,12.27,0,0,1,0,73.88q0-5.38,3-8.44a10.94,10.94,0,0,1,8.19-3.06c3.45,0,6,.87,7.75,2.62a8.75,8.75,0,0,1,2.56,6.31,21.43,21.43,0,0,1-1.38,7.44H15.25a7,7,0,0,0-1.13,3.56,3.47,3.47,0,0,0,1.69,2.88,7.59,7.59,0,0,0,4.44,1.19c3.33,0,5.48-1.32,6.44-3.94s1.43-8.32,1.43-17.06v-63H18.75Z"/></g></g></svg>